<svg width="24" height="24" viewBox="0 0 24 24" fill="none" xmlns="http://www.w3.org/2000/svg">
<g clip-path="url(#clip0_314_1332)">
<path d="M19.7812 24H4.21875C4.17647 23.9827 4.13276 23.9691 4.08812 23.9594C3.13598 23.8461 2.24236 23.4405 1.53027 22.7984C0.818186 22.1562 0.322647 21.3092 0.111874 20.3737C0.0699986 20.1931 0.036875 20.01 0 19.8281V6C0.0186829 5.95038 0.0335198 5.8994 0.0443764 5.8475C0.316251 3.72625 2.1275 2.00937 4.25563 1.8725C4.67188 1.84562 5.09125 1.86813 5.53 1.86813C5.53 1.605 5.54375 1.395 5.53 1.1875C5.48312 0.59875 5.7175 0.195625 6.28375 0H6.65875C7.23687 0.20375 7.45687 0.625001 7.40875 1.2175C7.39312 1.41688 7.40875 1.61875 7.40875 1.83125H16.6C16.6 1.61875 16.6137 1.41688 16.6 1.21688C16.5512 0.623125 16.7744 0.204375 17.35 0H17.725C18.2875 0.196875 18.5256 0.598125 18.4788 1.1875C18.4619 1.40062 18.4788 1.61625 18.4788 1.84312C18.7731 1.84312 19.03 1.84312 19.2869 1.84312C21.495 1.87125 23.2869 3.21813 23.8494 5.27563C23.9119 5.51313 23.9575 5.7575 24.0106 5.99875V19.8281C23.9928 19.87 23.9789 19.9136 23.9694 19.9581C23.8483 20.8933 23.4441 21.7692 22.8112 22.4683C22.1783 23.1673 21.3467 23.6562 20.4281 23.8694C20.2069 23.9187 19.9937 23.9569 19.7812 24ZM22.1256 9.26562H1.87563V9.54062C1.87563 12.7744 1.87563 16.0083 1.87563 19.2425C1.87563 20.93 3.06313 22.1225 4.75063 22.1231C9.58396 22.1256 14.4192 22.1256 19.2562 22.1231C20.94 22.1231 22.1275 20.9263 22.1275 19.24C22.1275 16.0063 22.1275 12.7725 22.1275 9.53875L22.1256 9.26562ZM18.47 3.74438C18.47 4.34688 18.4738 4.94 18.47 5.53312C18.465 6.07438 18.0687 6.47687 17.5462 6.48187C17.0131 6.4875 16.605 6.08375 16.5981 5.5325C16.5919 5.01687 16.5981 4.50125 16.5981 3.98562C16.5981 3.90312 16.5913 3.82062 16.5875 3.74H7.40437C7.40437 4.35375 7.41 4.94688 7.40437 5.54C7.39812 6.06125 7.01687 6.45813 6.51937 6.48063C6.39227 6.48945 6.26471 6.47182 6.14475 6.42887C6.0248 6.38591 5.91505 6.31855 5.82243 6.23105C5.72982 6.14354 5.65635 6.03779 5.60666 5.92046C5.55698 5.80313 5.53215 5.67678 5.53375 5.54938C5.52687 4.94938 5.53375 4.34938 5.53375 3.7525C3.22875 3.4325 1.5775 4.825 1.90313 7.36H22.1069C22.3987 4.885 20.8813 3.45312 18.47 3.74375V3.74438Z" fill="#DFFA70"/>
<path d="M6.46501 17.5306C6.77751 17.5306 7.09001 17.5244 7.40251 17.5306C7.64624 17.5351 7.87858 17.6346 8.04995 17.808C8.22132 17.9813 8.31815 18.2148 8.31978 18.4586C8.32141 18.7023 8.22771 18.9371 8.05868 19.1127C7.88964 19.2884 7.65866 19.391 7.41501 19.3987C6.78293 19.4121 6.15105 19.4121 5.51939 19.3987C5.27576 19.3911 5.04475 19.2886 4.87563 19.1131C4.70652 18.9376 4.61268 18.7029 4.61415 18.4592C4.61562 18.2154 4.71227 17.9819 4.88349 17.8085C5.05471 17.635 5.28694 17.5353 5.53064 17.5306C5.84126 17.5244 6.15314 17.5306 6.46501 17.5306Z" fill="#DFFA70"/>
<path d="M17.5281 19.4039C17.2238 19.4039 16.9194 19.4102 16.6156 19.4039C16.4874 19.4127 16.3588 19.395 16.2377 19.352C16.1166 19.309 16.0057 19.2415 15.9118 19.1538C15.8178 19.0661 15.7429 18.96 15.6917 18.8421C15.6406 18.7243 15.6141 18.5971 15.6141 18.4686C15.6141 18.3401 15.6406 18.213 15.6917 18.0951C15.7429 17.9773 15.8178 17.8712 15.9118 17.7835C16.0057 17.6958 16.1166 17.6283 16.2377 17.5853C16.3588 17.5422 16.4874 17.5245 16.6156 17.5333C17.2319 17.5267 17.8481 17.5267 18.4644 17.5333C18.7006 17.5506 18.9214 17.6566 19.0826 17.8301C19.2439 18.0035 19.3335 18.2315 19.3335 18.4683C19.3335 18.7051 19.2439 18.9331 19.0826 19.1066C18.9214 19.28 18.7006 19.386 18.4644 19.4033C18.1525 19.4108 17.84 19.4039 17.5281 19.4039Z" fill="#DFFA70"/>
<path d="M17.5344 13.8743C17.23 13.8743 16.9256 13.8793 16.6219 13.8743C16.0875 13.863 15.6794 13.458 15.6756 12.943C15.6719 12.428 16.0875 12.0055 16.6331 12.0018C17.2335 11.9968 17.8342 11.9968 18.435 12.0018C18.9794 12.0068 19.3988 12.423 19.3944 12.943C19.3912 13.1918 19.2899 13.4293 19.1124 13.6036C18.9349 13.7779 18.6957 13.875 18.4469 13.8737C18.1406 13.8793 17.8381 13.8743 17.5344 13.8743Z" fill="#DFFA70"/>
<path d="M6.46874 12.0008C6.77249 12.0008 7.07686 11.9958 7.38124 12.0008C7.50906 11.9923 7.63726 12.0101 7.75793 12.0531C7.87859 12.0961 7.98917 12.1634 8.08283 12.2508C8.17649 12.3382 8.25125 12.4438 8.30249 12.5612C8.35372 12.6786 8.38036 12.8053 8.38074 12.9334C8.38113 13.0615 8.35526 13.1883 8.30472 13.306C8.25419 13.4237 8.18007 13.5298 8.08694 13.6178C7.99381 13.7057 7.88364 13.7737 7.76323 13.8174C7.64282 13.8611 7.51473 13.8797 7.38686 13.872C6.77061 13.8799 6.15436 13.8799 5.53811 13.872C5.40987 13.8795 5.28147 13.8606 5.16086 13.8163C5.04025 13.7721 4.93001 13.7036 4.83698 13.615C4.74395 13.5265 4.67012 13.4197 4.62006 13.3014C4.57001 13.1831 4.5448 13.0558 4.546 12.9273C4.5472 12.7989 4.57479 12.672 4.62705 12.5547C4.67931 12.4374 4.75512 12.332 4.84979 12.2452C4.94446 12.1584 5.05597 12.0919 5.17738 12.05C5.2988 12.008 5.42754 11.9915 5.55561 12.0014C5.85999 11.9964 6.16436 12.0001 6.46874 12.0008Z" fill="#DFFA70"/>
<path d="M12.0156 12.0006C12.32 12.0006 12.6244 11.995 12.9281 12.0006C13.163 12.0174 13.383 12.1219 13.5444 12.2934C13.7058 12.4649 13.7967 12.6909 13.799 12.9264C13.8014 13.1619 13.715 13.3896 13.5572 13.5643C13.3993 13.7391 13.1814 13.848 12.9469 13.8694C12.3156 13.8825 11.6831 13.8813 11.0519 13.8694C10.8083 13.8626 10.5771 13.7608 10.4074 13.586C10.2378 13.4111 10.1432 13.1768 10.1437 12.9332C10.1443 12.6896 10.24 12.4558 10.4105 12.2817C10.5809 12.1076 10.8127 12.007 11.0562 12.0013C11.3744 11.9944 11.6944 12.0006 12.0156 12.0006Z" fill="#DFFA70"/>
<path d="M11.9931 19.4045C11.6963 19.4045 11.4 19.4082 11.1038 19.4045C10.5563 19.3963 10.1375 18.9907 10.1338 18.4713C10.13 17.952 10.5469 17.537 11.0944 17.5338C11.6948 17.5284 12.2954 17.5284 12.8963 17.5338C13.4438 17.5388 13.8556 17.9495 13.8513 18.4751C13.8469 19.0007 13.4413 19.3907 12.9056 19.4032C12.6013 19.4095 12.2969 19.4045 11.9931 19.4045Z" fill="#DFFA70"/>
</g>
<defs>
<clipPath id="clip0_314_1332">
<rect width="24" height="24" fill="white"/>
</clipPath>
</defs>
</svg>
