<svg width="291" height="632" viewBox="0 0 291 632" fill="none" xmlns="http://www.w3.org/2000/svg">
<path d="M330.987 526.805C294.873 507.98 264.298 480.048 242.281 445.769C220.264 411.491 207.568 372.051 205.446 331.347C203.325 290.643 211.852 250.082 230.185 213.673C248.517 177.263 276.022 146.264 309.98 123.738L310.087 125.885C278.381 147.307 252.392 176.166 234.387 209.944C214.481 247.163 205.091 289.104 207.227 331.252C209.485 373.395 223.184 414.116 246.851 449.034C268.267 480.735 297.115 506.704 330.875 524.673L330.987 526.805Z" fill="#DFFA70"/>
<path d="M158.216 333.84C155.442 280.263 166.646 226.876 190.729 178.928C214.812 130.981 250.943 90.1222 295.572 60.3692L295.675 62.3612C253.834 90.6835 219.535 128.804 195.763 173.406C169.449 222.605 157.036 278.046 159.86 333.762C162.843 389.474 180.954 443.306 212.242 489.465C240.521 531.314 278.594 565.607 323.148 589.362L323.251 591.354C275.771 566.465 235.588 529.636 206.652 484.485C177.716 439.335 161.024 387.418 158.216 333.84Z" fill="#DFFA70"/>
<path d="M326.644 262.533C316.769 282.052 312.173 303.816 313.315 325.659C314.456 347.502 321.295 368.661 333.151 387.029C338.373 395.176 344.509 402.697 351.439 409.447C360.064 417.89 369.856 425.048 380.515 430.704L380.594 432.224C375.747 429.713 371.069 426.889 366.59 423.77C361.234 420.068 356.178 415.951 351.467 411.456C327.791 389.022 313.667 358.315 312.033 325.717C310.259 293.135 321.098 261.114 342.298 236.308C346.506 231.352 351.097 226.733 356.027 222.496C360.17 218.907 364.543 215.592 369.116 212.571L369.195 214.091C359.174 220.843 350.174 229.001 342.47 238.314C336.29 245.758 330.98 253.883 326.644 262.533Z" fill="#DFFA70"/>
<path d="M358.237 484.698C351.417 481.117 344.827 477.115 338.506 472.714C330.634 467.271 323.2 461.218 316.272 454.613C281.463 421.629 260.701 376.482 258.3 328.554C255.706 280.646 271.656 233.567 302.835 197.099C309.031 189.814 315.788 183.026 323.045 176.799C328.893 171.738 335.052 167.047 341.485 162.755L341.534 163.7C326.809 173.648 313.578 185.651 302.244 199.344C293.09 210.35 285.223 222.366 278.795 235.159C264.187 264.029 257.387 296.22 259.074 328.528C260.76 360.835 270.873 392.132 288.406 419.302C296.132 431.348 305.212 442.468 315.468 452.444C328.144 464.864 342.53 475.407 358.188 483.753L358.237 484.698Z" fill="#DFFA70"/>
<path d="M315.467 452.444C305.213 442.462 296.134 431.338 288.41 419.288C270.879 392.12 260.767 360.826 259.08 328.521C257.393 296.216 264.19 264.027 278.795 235.158C285.222 222.366 293.09 210.349 302.243 199.343C313.57 185.646 326.794 173.637 341.513 163.681L341.465 162.737C335.038 167.035 328.886 171.732 323.045 176.799C315.797 183.03 309.049 189.821 302.863 197.108C271.676 233.57 255.716 280.645 258.299 328.554C260.701 376.477 281.46 421.621 316.264 454.605C323.192 461.21 330.626 467.262 338.498 472.706C344.819 477.106 351.409 481.109 358.228 484.689L358.182 483.739C342.526 475.397 328.143 464.859 315.467 452.444Z" fill="#DFFA70"/>
</svg>
