<svg width="180" height="26" viewBox="0 0 180 26" fill="none" xmlns="http://www.w3.org/2000/svg">
<g clip-path="url(#clip0_314_2067)">
<path d="M178.341 11.2335C178.012 11.2331 177.691 11.3233 177.418 11.4925C177.145 11.6618 176.932 11.9026 176.806 12.1844C176.68 12.4663 176.647 12.7765 176.71 13.0759C176.774 13.3753 176.932 13.6503 177.164 13.8663C177.396 14.0822 177.692 14.2293 178.014 14.289C178.336 14.3487 178.67 14.3183 178.973 14.2016C179.276 14.0849 179.536 13.8871 179.718 13.6334C179.901 13.3797 179.998 13.0813 179.998 12.7762C179.998 12.3674 179.824 11.9753 179.513 11.686C179.202 11.3968 178.78 11.234 178.341 11.2335Z" fill="#DFFA70"/>
<path d="M36.2111 7.24847C35.1745 6.48767 33.8974 6.06511 32.5768 6.046C30.7277 5.99458 28.8446 5.99063 27.0211 5.98865H25.2656V8.07517H29.5212C30.3192 8.07517 31.1682 8.07517 32.0299 8.12461C33.6407 8.21163 34.2939 9.05415 34.5578 9.74635C34.7327 10.1571 34.799 10.601 34.7508 11.0405C34.7027 11.48 34.5416 11.9024 34.2812 12.2719C33.7577 12.9701 32.8577 13.3775 31.8129 13.3894C31.0597 13.3992 30.2447 13.4032 29.2595 13.4032H27.4083H25.5614H25.2678V19.194H28.3637V15.46H31.7278L31.9172 15.7191L32.7683 16.8682L34.4705 19.192H37.6623L36.3451 17.3883L35.0685 15.646L34.6876 15.1258L35.2685 14.8034L35.4812 14.6907C35.5898 14.6294 35.6749 14.5839 35.7579 14.5345C36.4002 14.149 36.9358 13.6283 37.3212 13.0145C37.7067 12.4007 37.9311 11.7112 37.9762 11.0017C38.0214 10.2923 37.8861 9.58297 37.5813 8.93122C37.2764 8.27947 36.8107 7.70365 36.2217 7.25045L36.2111 7.24847Z" fill="#DFFA70"/>
<path d="M6.34087 5.93323L0 19.2869H3.27895L3.30024 19.2375C3.97262 17.5623 7.14731 10.6363 8.10482 8.75547C9.07723 10.6363 12.2838 17.5584 12.9584 19.2375L12.9796 19.285H16.348L9.98368 5.93916L6.34087 5.93323Z" fill="#DFFA70"/>
<path d="M46.1377 6.04194V8.07506V8.8444H50.8636V19.1821H54.0276V8.8444H58.7109V8.06715V6.04194V6.03601H46.1377V6.04194Z" fill="#DFFA70"/>
<path d="M95.2346 1.97779C97.3406 1.98624 99.405 2.52372 101.209 3.53336C103.014 4.54301 104.491 5.98724 105.484 7.71324H107.844C106.783 5.42384 105.024 3.47331 102.784 2.10232C100.544 0.731319 97.9211 -0.000145653 95.2391 -0.00182815C92.5571 -0.00351064 89.9333 0.724666 87.6914 2.09285C85.4495 3.46104 83.6875 5.40936 82.623 7.69742H84.9849C85.9807 5.97437 87.4588 4.53334 89.2629 3.52657C91.067 2.51981 93.1303 1.9847 95.2346 1.97779Z" fill="#DFFA70"/>
<path d="M95.2346 23.5627C93.0549 23.5627 90.9192 22.9923 89.0719 21.9168C87.2246 20.8413 85.7405 19.3041 84.7892 17.4812H82.4678C83.4091 19.6554 84.9674 21.5515 86.9766 22.9675C89.3549 24.6372 92.2541 25.5406 95.2346 25.5406C98.2152 25.5406 101.114 24.6372 103.493 22.9675C105.502 21.5515 107.06 19.6554 108.002 17.4812H105.68C104.729 19.3041 103.245 20.8413 101.397 21.9168C99.5501 22.9923 97.4144 23.5627 95.2346 23.5627Z" fill="#DFFA70"/>
<path d="M95.2345 5.79483C93.3143 5.7899 91.4655 6.47104 90.0703 7.69741C89.7917 7.94196 89.5342 8.20647 89.3001 8.48851C88.9019 8.96456 88.5728 9.48721 88.3213 10.043H89.681C90.2165 9.1072 91.0159 8.32444 91.9934 7.7786C92.971 7.23275 94.0899 6.94438 95.2303 6.94438C96.3707 6.94438 97.4896 7.23275 98.4671 7.7786C99.4447 8.32444 100.244 9.1072 100.78 10.043H102.139C101.888 9.48721 101.559 8.96456 101.16 8.48851C100.926 8.20647 100.669 7.94196 100.39 7.69741C98.9972 6.47293 97.1518 5.79193 95.2345 5.79483Z" fill="#DFFA70"/>
<path d="M95.2343 19.7438C96.272 19.7396 97.2975 19.5365 98.2468 19.1472C99.1961 18.7579 100.049 18.1908 100.752 17.4813C100.999 17.2342 101.226 16.9697 101.431 16.6902C101.753 16.2555 102.021 15.7876 102.228 15.2959H100.888C100.624 15.8033 100.283 16.2728 99.8751 16.6902C99.2882 17.2927 98.5721 17.7743 97.7728 18.1039C96.9735 18.4334 96.1088 18.6037 95.2343 18.6037C94.3599 18.6037 93.4952 18.4334 92.6959 18.1039C91.8966 17.7743 91.1804 17.2927 90.5936 16.6902C90.186 16.2728 89.8449 15.8033 89.5808 15.2959H88.2402C88.4476 15.7876 88.7154 16.2555 89.0382 16.6902C89.2423 16.9697 89.4692 17.2342 89.7169 17.4813C90.4198 18.1908 91.2725 18.7579 92.2219 19.1472C93.1712 19.5365 94.1967 19.7396 95.2343 19.7438Z" fill="#DFFA70"/>
<path d="M78.2351 7.93271V6.04199H67.8535V7.93271V8.84445H78.2351V7.93271Z" fill="#DFFA70"/>
<path d="M158.139 12.5844L158.245 12.446L163.188 6.01831H159.96L158.292 8.13647L156.815 10.0114L156.3 10.666L155.785 10.0114L154.185 7.98023L152.787 6.20026H149.562L150.436 7.33746L154.358 12.444L154.426 12.533L140.055 12.3352V6.03413H137.039V12.2917L121.194 12.0722L115.925 6.08159H113.025V7.3968L117.14 12.0148L70.9348 11.374H67.8516V11.8507V19.1821H70.9539V14.1765L118.5 13.5397L123.532 19.1841H126.456C126.456 18.9112 126.456 18.6363 126.456 18.3238V18.0627L122.432 13.4863L137.033 13.2885V19.2079H140.048V13.2489L154.411 13.0512L154.347 13.1322L153.709 13.9471L149.577 19.194H153.053L153.417 18.7194L155.783 15.642L156.303 14.9676L156.822 15.642L159.696 19.3819H163.169L162.841 18.9705L158.258 13.15L158.154 13.0175L173.651 12.8079L158.139 12.5844Z" fill="#DFFA70"/>
<path d="M124.685 9.02838C125.245 9.54852 125.813 10.0786 126.409 10.6106V6.10132H123.155V7.61825C123.674 8.09291 124.187 8.56361 124.685 9.02838Z" fill="#DFFA70"/>
<path d="M113.033 19.188H116.236V18.3198L113.033 16.0059V19.188Z" fill="#DFFA70"/>
</g>
<defs>
<clipPath id="clip0_314_2067">
<rect width="180" height="25.5405" fill="white"/>
</clipPath>
</defs>
</svg>
