<svg width="221" height="32" viewBox="0 0 221 32" fill="none" xmlns="http://www.w3.org/2000/svg">
<g clip-path="url(#clip0_314_655)">
<path d="M218.962 14.0747C218.559 14.0742 218.165 14.1872 217.829 14.3992C217.494 14.6113 217.232 14.913 217.078 15.2661C216.923 15.6193 216.882 16.008 216.961 16.383C217.039 16.7581 217.233 17.1028 217.518 17.3733C217.803 17.6439 218.166 17.8282 218.561 17.903C218.956 17.9777 219.366 17.9396 219.739 17.7934C220.111 17.6472 220.43 17.3995 220.654 17.0816C220.878 16.7637 220.997 16.3899 220.997 16.0075C220.997 15.4953 220.783 15.0041 220.401 14.6417C220.02 14.2793 219.502 14.0754 218.962 14.0747Z" fill="white"/>
<path d="M44.4591 9.08138C43.1864 8.12816 41.6184 7.59873 39.997 7.57479C37.7267 7.51037 35.4147 7.50541 33.1758 7.50293H31.0205V10.1172H36.2455C37.2251 10.1172 38.2675 10.1172 39.3256 10.1791C41.3032 10.2881 42.1053 11.3437 42.4292 12.211C42.644 12.7257 42.7253 13.2818 42.6662 13.8324C42.6071 14.3831 42.4094 14.9123 42.0896 15.3753C41.4469 16.25 40.3418 16.7605 39.0591 16.7754C38.1343 16.7877 37.1337 16.7927 35.9241 16.7927H33.6513H31.3836H31.0231V24.0481H34.8243V19.3697H38.9546L39.1871 19.6944L40.2321 21.134L42.3221 24.0456H46.2408L44.6237 21.7857L43.0562 19.6027L42.5886 18.951L43.3018 18.5471L43.563 18.4058C43.6963 18.329 43.8008 18.272 43.9026 18.2101C44.6913 17.7271 45.3489 17.0747 45.8221 16.3057C46.2953 15.5367 46.5709 14.6727 46.6263 13.7839C46.6818 12.895 46.5157 12.0063 46.1414 11.1897C45.7671 10.3731 45.1953 9.65167 44.4722 9.08385L44.4591 9.08138Z" fill="white"/>
<path d="M7.78518 7.43359L0 24.1646H4.02582L4.05196 24.1026C4.8775 22.0038 8.77531 13.3261 9.95092 10.9696C11.1448 13.3261 15.0818 21.9989 15.91 24.1026L15.9361 24.1621H20.0717L12.2577 7.44103L7.78518 7.43359Z" fill="#DFFA70"/>
<path d="M56.6465 7.56993V10.1172V11.0812H62.4488V24.0333H66.3336V11.0812H72.0836V10.1073V7.56993V7.5625H56.6465V7.56993Z" fill="white"/>
<path d="M116.927 2.47784C119.512 2.48843 122.047 3.16185 124.262 4.42684C126.477 5.69183 128.291 7.50133 129.511 9.66385H132.408C131.105 6.79544 128.945 4.3516 126.195 2.63386C123.445 0.916129 120.225 -0.00032975 116.932 -0.00243776C113.639 -0.00454577 110.418 0.907795 107.665 2.62201C104.913 4.33622 102.749 6.77729 101.442 9.64402H104.342C105.565 7.4852 107.38 5.67972 109.595 4.41833C111.81 3.15695 114.343 2.4865 116.927 2.47784Z" fill="#DFFA70"/>
<path d="M116.927 29.522C114.251 29.522 111.628 28.8073 109.36 27.4598C107.092 26.1122 105.27 24.1863 104.102 21.9023H101.252C102.408 24.6264 104.321 27.002 106.788 28.7761C109.708 30.8682 113.267 32 116.927 32C120.586 32 124.146 30.8682 127.066 28.7761C129.533 27.002 131.446 24.6264 132.602 21.9023H129.751C128.584 24.1863 126.761 26.1122 124.493 27.4598C122.225 28.8073 119.603 29.522 116.927 29.522Z" fill="#DFFA70"/>
<path d="M116.927 7.26029C114.569 7.25411 112.299 8.10752 110.586 9.64406C110.244 9.95045 109.928 10.2819 109.641 10.6352C109.152 11.2317 108.748 11.8865 108.439 12.5829H110.108C110.766 11.4104 111.747 10.4297 112.948 9.74577C114.148 9.06188 115.522 8.70058 116.922 8.70058C118.322 8.70058 119.696 9.06188 120.896 9.74577C122.096 10.4297 123.077 11.4104 123.735 12.5829H125.404C125.096 11.8865 124.691 11.2317 124.203 10.6352C123.915 10.2819 123.599 9.95045 123.257 9.64406C121.547 8.10988 119.281 7.25665 116.927 7.26029Z" fill="#DFFA70"/>
<path d="M116.927 24.7374C118.201 24.7321 119.46 24.4776 120.625 23.9899C121.791 23.5021 122.838 22.7916 123.701 21.9027C124.005 21.593 124.284 21.2617 124.534 20.9115C124.93 20.3668 125.259 19.7807 125.514 19.1646H123.868C123.544 19.8003 123.125 20.3886 122.624 20.9115C121.904 21.6664 121.025 22.2697 120.043 22.6827C119.062 23.0956 118 23.3089 116.927 23.3089C115.853 23.3089 114.791 23.0956 113.81 22.6827C112.829 22.2697 111.949 21.6664 111.229 20.9115C110.728 20.3886 110.31 19.8003 109.985 19.1646H108.339C108.594 19.7807 108.923 20.3668 109.319 20.9115C109.57 21.2617 109.848 21.593 110.152 21.9027C111.015 22.7916 112.062 23.5021 113.228 23.9899C114.393 24.4776 115.653 24.7321 116.927 24.7374Z" fill="#DFFA70"/>
<path d="M96.0558 9.93921V7.57031H83.3096V9.93921V11.0815H96.0558V9.93921Z" fill="white"/>
<path d="M194.159 15.7673L194.29 15.5938L200.359 7.54053H196.396L194.347 10.1944L192.534 12.5435L191.902 13.3637L191.27 12.5435L189.305 9.99863L187.589 7.76849H183.628L184.702 9.1933L189.517 15.5913L189.601 15.7028L171.956 15.455V7.56035H168.254V15.4005L148.799 15.1255L142.33 7.61982H138.77V9.26765L143.822 15.0536L87.0921 14.2508H83.3066V14.8479V24.0336H87.1156V17.762L145.491 16.9641L151.67 24.0361H155.26C155.26 23.6942 155.26 23.3497 155.26 22.9582V22.6311L150.319 16.8972L168.246 16.6494V24.0658H171.948V16.5998L189.582 16.352L189.504 16.4536L188.72 17.4746L183.647 24.0485H187.915L188.362 23.4538L191.267 19.5981L191.905 18.7532L192.542 19.5981L196.072 24.2839H200.335L199.933 23.7685L194.306 16.4759L194.178 16.3099L213.204 16.0473L194.159 15.7673Z" fill="white"/>
<path d="M153.086 11.3119C153.773 11.9636 154.471 12.6277 155.202 13.2942V7.64453H151.208V9.54511C151.845 10.1398 152.475 10.7296 153.086 11.3119Z" fill="white"/>
<path d="M138.78 24.0407H142.712V22.9529L138.78 20.0537V24.0407Z" fill="white"/>
</g>
<defs>
<clipPath id="clip0_314_655">
<rect width="221" height="32" fill="white"/>
</clipPath>
</defs>
</svg>
