<svg width="748" height="593" viewBox="0 0 748 593" fill="none" xmlns="http://www.w3.org/2000/svg">
<mask id="mask0_314_668" style="mask-type:alpha" maskUnits="userSpaceOnUse" x="14" y="7" width="743" height="578">
<g clip-path="url(#clip0_314_668)">
<path d="M100.74 348.452C128.305 301.641 167.619 262.835 214.799 235.867C261.979 208.9 315.392 194.704 369.761 194.682C424.129 194.66 477.573 208.813 524.812 235.743C572.051 262.673 611.45 301.447 639.118 348.236L636.251 348.23C609.899 304.519 573.245 267.909 529.49 241.597C481.281 212.517 426.058 197.119 369.764 197.06C313.47 197.165 258.281 212.609 210.136 241.73C166.431 268.075 129.851 304.715 103.588 348.45L100.74 348.452Z" fill="#DFFA70"/>
<path d="M369.694 131.593C441.256 131.588 511.601 150.192 573.814 185.576C636.027 220.96 687.966 271.906 724.526 333.407L721.865 333.406C687.019 275.718 638.601 227.402 580.823 192.662C517.097 154.22 444.099 133.865 369.684 133.789C295.265 133.925 222.306 154.341 158.662 192.841C100.966 227.629 52.6604 275.984 17.9468 333.699L15.2862 333.699C51.7116 272.164 103.541 221.173 165.68 185.738C227.819 150.302 298.128 131.643 369.694 131.593Z" fill="#DFFA70"/>
<path d="M453.08 360.871C427.759 346.371 399.082 338.75 369.907 338.766C340.731 338.782 312.074 346.435 286.788 360.962C275.576 367.357 265.134 375.013 255.665 383.78C243.825 394.687 233.614 407.238 225.345 421.048L223.315 421.048C226.994 414.765 231.078 408.728 235.542 402.975C240.842 396.096 246.675 389.645 252.988 383.679C284.503 353.685 326.381 336.986 369.918 337.054C413.443 336.936 455.352 353.581 486.936 383.531C493.249 389.478 499.085 395.911 504.39 402.771C508.885 408.538 513 414.59 516.709 420.891L514.679 420.891C506.374 407.077 496.127 394.526 484.252 383.621C474.762 374.876 464.304 367.243 453.08 360.871Z" fill="#DFFA70"/>
<path d="M154.955 387.651C160.194 378.813 165.98 370.31 172.278 362.193C180.072 352.081 188.646 342.595 197.922 333.822C244.259 289.725 305.831 265.177 369.841 265.28C433.839 265.126 495.455 289.616 541.886 333.662C551.164 342.417 559.74 351.887 567.535 361.983C573.875 370.122 579.7 378.649 584.974 387.515L583.712 387.514C571.474 367.213 556.396 348.762 538.937 332.72C524.906 319.768 509.441 308.46 492.842 299.016C455.39 277.568 412.976 266.292 369.823 266.313C326.669 266.333 284.281 277.649 246.88 299.133C230.301 308.596 214.863 319.925 200.867 332.9C183.449 348.93 168.414 367.367 156.217 387.651L154.955 387.651Z" fill="#DFFA70"/>
<path d="M200.867 332.9C214.87 319.927 230.314 308.6 246.898 299.14C284.297 277.658 326.681 266.343 369.831 266.322C412.981 266.3 455.392 277.572 492.842 299.016C509.441 308.46 524.906 319.768 538.937 332.72C556.403 348.752 571.489 367.195 583.737 387.488L584.999 387.489C579.716 378.632 573.883 370.113 567.536 361.983C559.734 351.899 551.153 342.442 541.871 333.699C495.449 289.643 433.839 265.14 369.841 265.28C305.836 265.177 244.269 289.721 197.933 333.812C188.657 342.585 180.083 352.071 172.289 362.183C165.991 370.301 160.206 378.803 154.966 387.641L156.235 387.644C168.426 367.364 183.456 348.929 200.867 332.9Z" fill="#DFFA70"/>
</g>
</mask>
<g mask="url(#mask0_314_668)">
<rect x="-20.7212" y="109.356" width="764" height="203" fill="#DFFA70"/>
</g>
<defs>
<clipPath id="clip0_314_668">
<rect width="656.236" height="354.114" fill="white" transform="matrix(-0.925441 -0.378892 -0.378892 0.925441 756.018 256.488)"/>
</clipPath>
</defs>
</svg>
