<svg width="26" height="26" viewBox="0 0 26 26" fill="none" xmlns="http://www.w3.org/2000/svg">
<path d="M5.6875 10.5625C5.6875 8.6231 6.45792 6.76314 7.82928 5.39178C9.20064 4.02042 11.0606 3.25 13 3.25C14.9394 3.25 16.7994 4.02042 18.1707 5.39178C19.5421 6.76314 20.3125 8.6231 20.3125 10.5625C20.3125 13.5623 17.9124 17.472 13 22.1553C8.08762 17.472 5.6875 13.5623 5.6875 10.5625ZM13 24.375C18.9589 18.9589 21.9375 14.3536 21.9375 10.5625C21.9375 8.19213 20.9959 5.91884 19.3198 4.24273C17.6437 2.56663 15.3704 1.625 13 1.625C10.6296 1.625 8.35634 2.56663 6.68023 4.24273C5.00413 5.91884 4.0625 8.19213 4.0625 10.5625C4.0625 14.3536 7.04113 18.9589 13 24.375Z" fill="#6F6F6F"/>
<path d="M13 13C12.3535 13 11.7335 12.7432 11.2764 12.2861C10.8193 11.829 10.5625 11.209 10.5625 10.5625C10.5625 9.91603 10.8193 9.29605 11.2764 8.83893C11.7335 8.38181 12.3535 8.125 13 8.125C13.6465 8.125 14.2665 8.38181 14.7236 8.83893C15.1807 9.29605 15.4375 9.91603 15.4375 10.5625C15.4375 11.209 15.1807 11.829 14.7236 12.2861C14.2665 12.7432 13.6465 13 13 13ZM13 14.625C14.0774 14.625 15.1108 14.197 15.8726 13.4351C16.6345 12.6733 17.0625 11.6399 17.0625 10.5625C17.0625 9.48506 16.6345 8.45175 15.8726 7.68988C15.1108 6.92801 14.0774 6.5 13 6.5C11.9226 6.5 10.8892 6.92801 10.1274 7.68988C9.36551 8.45175 8.9375 9.48506 8.9375 10.5625C8.9375 11.6399 9.36551 12.6733 10.1274 13.4351C10.8892 14.197 11.9226 14.625 13 14.625Z" fill="#DFFA70"/>
</svg>
