<svg width="27" height="35" viewBox="0 0 27 35" fill="none" xmlns="http://www.w3.org/2000/svg">
<path fill-rule="evenodd" clip-rule="evenodd" d="M17.845 30.3118C21.454 25.7096 26 19.0234 26 14.5434C26 7.11454 20.4036 1.09229 13.5 1.09229C6.59644 1.09229 1 7.11454 1 14.5434C1 19.0234 5.54602 25.7096 9.15501 30.3118C11.0379 32.7128 11.9793 33.9133 13.5 33.9133C15.0207 33.9133 15.9621 32.7128 17.845 30.3118ZM13.5 19.8423C10.9112 19.8423 8.8125 17.7436 8.8125 15.1548C8.8125 12.566 10.9112 10.4673 13.5 10.4673C16.0888 10.4673 18.1875 12.566 18.1875 15.1548C18.1875 17.7436 16.0888 19.8423 13.5 19.8423Z" fill="#DFFA70" stroke="#090909" stroke-width="0.5"/>
</svg>
