<svg width="10" height="12" viewBox="0 0 10 12" fill="none" xmlns="http://www.w3.org/2000/svg">
<path d="M4.99984 11.4186C4.26305 10.7901 3.58012 10.1011 2.95817 9.3588C2.02484 8.24405 0.916504 6.58389 0.916504 5.00189C0.9161 4.19395 1.15538 3.40405 1.60408 2.73215C2.05277 2.06026 2.6907 1.53657 3.43713 1.22737C4.18356 0.918164 5.00494 0.837346 5.79732 0.995138C6.5897 1.15293 7.31747 1.54224 7.88851 2.1138C8.2687 2.4923 8.57004 2.94245 8.77511 3.43819C8.98017 3.93392 9.08488 4.46541 9.08317 5.00189C9.08317 6.58389 7.97484 8.24405 7.04151 9.3588C6.41956 10.1011 5.73662 10.7901 4.99984 11.4186ZM4.99984 3.25189C4.53571 3.25189 4.09059 3.43626 3.7624 3.76445C3.43421 4.09264 3.24984 4.53776 3.24984 5.00189C3.24984 5.46601 3.43421 5.91113 3.7624 6.23932C4.09059 6.56751 4.53571 6.75189 4.99984 6.75189C5.46397 6.75189 5.90909 6.56751 6.23728 6.23932C6.56546 5.91113 6.74984 5.46601 6.74984 5.00189C6.74984 4.53776 6.56546 4.09264 6.23728 3.76445C5.90909 3.43626 5.46397 3.25189 4.99984 3.25189Z" fill="white"/>
</svg>
