<svg width="15" height="15" viewBox="0 0 15 15" fill="none" xmlns="http://www.w3.org/2000/svg">
<path d="M12.1161 5.76938H10.9626C10.9621 5.31049 10.7797 4.87053 10.4553 4.54605C10.131 4.22157 9.69115 4.03907 9.23242 4.03861V2.88477C9.99693 2.88568 10.7299 3.18989 11.2704 3.73066C11.811 4.27143 12.1151 5.00461 12.1161 5.76938Z" fill="#DFFA70"/>
<path d="M14.423 5.76897H13.2695C13.2683 4.69828 12.8426 3.67179 12.0857 2.91469C11.3289 2.1576 10.3027 1.73173 9.23242 1.73051V0.57666C10.6086 0.578187 11.9279 1.12572 12.901 2.09914C13.8741 3.07255 14.4214 4.39235 14.423 5.76897Z" fill="#DFFA70"/>
<path d="M13.2698 15H13.1717C1.83908 14.3481 0.230013 4.78269 0.00508931 1.86346C-0.0300644 1.40582 0.117945 0.952944 0.416562 0.604457C0.715178 0.25597 1.13995 0.0404104 1.59743 0.00519289C1.64318 0.00173135 1.68913 5.40918e-07 1.73527 5.40918e-07H4.77462C5.00563 -0.000223169 5.23138 0.0689484 5.42264 0.198555C5.6139 0.328162 5.76185 0.512233 5.84733 0.726924L6.72395 2.88462C6.80835 3.09435 6.8293 3.32428 6.78419 3.54582C6.73907 3.76737 6.62989 3.97077 6.47019 4.13077L5.24176 5.37115C5.43287 6.4623 5.95482 7.46826 6.73683 8.2526C7.51884 9.03695 8.52308 9.56172 9.61335 9.75577L10.8648 8.51539C11.0272 8.3574 11.2324 8.25072 11.455 8.20866C11.6776 8.16659 11.9076 8.191 12.1163 8.27885L14.2906 9.15C14.502 9.2382 14.6823 9.38736 14.8087 9.57846C14.935 9.76957 15.0016 9.99397 15 10.2231V13.2692C15 13.7283 14.8177 14.1685 14.4932 14.4931C14.1687 14.8177 13.7287 15 13.2698 15ZM1.73527 1.15385C1.65953 1.15362 1.58449 1.16832 1.51443 1.1971C1.44437 1.22588 1.38067 1.26819 1.32695 1.3216C1.27324 1.37501 1.23057 1.43848 1.20137 1.50839C1.17218 1.5783 1.15704 1.65328 1.15681 1.72904C1.15681 1.74519 1.15739 1.76115 1.15854 1.77692C1.42384 5.19231 3.12518 13.2692 13.2352 13.8462C13.3878 13.8553 13.5379 13.8034 13.6523 13.702C13.7667 13.6005 13.8362 13.4577 13.8454 13.305L13.8465 13.2692V10.2231L11.6723 9.35192L10.0171 10.9962L9.74023 10.9615C4.72271 10.3327 4.04217 5.31346 4.04217 5.26154L4.00757 4.98462L5.64547 3.32885L4.78038 1.15385H1.73527Z" fill="#DFFA70"/>
</svg>
