<svg width="180" height="28" viewBox="0 0 180 28" fill="none" xmlns="http://www.w3.org/2000/svg">
<g clip-path="url(#clip0_314_1404)">
<path d="M77.4905 26.958H71.0281C70.9681 19.0901 70.9081 11.2338 70.8481 3.38903L70.7581 3.38264C69.3182 11.2365 67.875 19.1014 66.4285 26.9772H63.9276C62.7127 26.9772 61.4978 26.968 60.2829 26.9835C59.9859 26.9835 59.8788 26.8922 59.8239 26.5909C58.8244 21.0871 57.8165 15.5848 56.8001 10.084C56.3916 7.85844 55.9857 5.63287 55.4799 3.41095C55.4247 11.2514 55.3695 19.0989 55.3143 26.9534H48.8654C49.0517 18.2676 49.2371 9.60638 49.4234 0.907752H59.9418L63.1222 20.8895L63.2221 20.8977L66.4087 0.897705H76.9118C77.1035 9.58264 77.2943 18.2447 77.4905 26.958Z" fill="white"/>
<path d="M133.356 0.870279H136.055C138.186 0.870279 140.315 0.878499 142.445 0.862061C142.787 0.862061 142.93 0.953385 143.029 1.29859C144.933 7.94151 146.845 14.5811 148.765 21.2173C148.79 21.3181 148.851 21.4058 148.936 21.463C148.821 14.6246 148.707 7.78535 148.591 0.908637H154.934V26.6794C154.798 26.6876 154.664 26.7032 154.536 26.7032C151.762 26.7032 148.987 26.6977 146.213 26.7123C145.881 26.7123 145.757 26.6045 145.662 26.2885C143.618 19.4514 141.567 12.6161 139.508 5.78261C139.475 5.64166 139.406 5.51241 139.306 5.40909C139.426 12.4822 139.545 19.5543 139.666 26.6657H133.354L133.356 0.870279Z" fill="white"/>
<path d="M108.153 0.893066H114.658V1.4474C114.658 7.71833 114.66 13.9893 114.664 20.2602C114.657 20.67 114.711 21.0786 114.824 21.4721C115.179 22.6063 116.255 23.2072 117.554 23.0383C118.783 22.883 119.576 22.0611 119.683 20.8237C119.7 20.6273 119.696 20.4282 119.696 20.231C119.696 13.9759 119.696 7.72107 119.696 1.46658V0.901285H126.2C126.208 1.06202 126.223 1.22275 126.223 1.38439C126.223 7.62366 126.22 13.8641 126.216 20.1059C126.216 20.8055 126.153 21.5037 126.027 22.1917C125.566 24.6757 124.099 26.3223 121.753 27.0803C118.729 28.0574 115.659 28.0702 112.636 27.0912C109.852 26.1899 108.296 24.0164 108.184 21.0529C108.139 19.8657 108.154 18.6785 108.153 17.4912C108.153 12.164 108.153 6.83675 108.153 1.5095V0.893066Z" fill="white"/>
<path d="M179.944 9.1809H173.445C173.445 8.74254 173.458 8.32063 173.445 7.90236C173.431 7.4841 173.445 7.03661 173.33 6.63752C173.223 6.24409 173.023 5.88316 172.747 5.58638C171.893 4.73889 170.831 4.71149 169.765 5.03843C168.763 5.34894 168.304 6.14346 168.197 7.16537C168.162 7.49905 168.145 7.83438 168.145 8.16994C168.142 12.0348 168.142 15.9008 168.145 19.7681C168.145 19.9964 168.154 20.2247 168.174 20.4512C168.279 21.6211 168.815 22.3288 169.826 22.643C171.022 23.0156 172.398 22.7142 172.998 21.8604C173.255 21.4951 173.466 21.0101 173.484 20.5709C173.544 19.1097 173.506 17.6549 173.506 16.1425H170.925V12.3416H179.975C179.983 12.496 179.996 12.6284 179.996 12.7617C179.996 15.0448 180.024 17.3279 179.982 19.611C179.98 20.5234 179.876 21.4326 179.674 22.3215C179.103 24.654 177.522 26.075 175.336 26.7964C172.494 27.7507 169.428 27.7727 166.573 26.8594C163.459 25.8868 161.933 23.7928 161.752 20.3636C161.676 18.9225 161.712 17.4741 161.71 16.0284C161.704 13.5325 161.687 11.0366 161.719 8.53981C161.723 7.64263 161.805 6.74757 161.964 5.86492C162.438 3.36081 163.925 1.68592 166.283 0.885923C169.271 -0.125949 172.313 -0.129602 175.308 0.825649C178.362 1.80008 179.897 4.09506 179.945 7.49232C179.95 8.04026 179.944 8.58729 179.944 9.1809Z" fill="white"/>
<path d="M0.0177781 18.4276H6.92386C6.92386 19.1582 6.91486 19.8687 6.92386 20.5783C6.92254 20.9123 6.95268 21.2456 7.01385 21.5737C7.07668 21.9052 7.22253 22.2146 7.43735 22.4723C7.65218 22.73 7.92876 22.9272 8.24046 23.045C8.6431 23.2164 9.07517 23.3053 9.5118 23.3065C9.94842 23.3078 10.381 23.2214 10.7846 23.0523C11.6845 22.687 12.1849 21.6404 12.1084 20.4276C12.0652 19.6879 11.779 19.0441 11.239 18.5874C10.5507 17.9796 9.8168 17.427 9.0441 16.9345C7.50881 15.9865 5.91863 15.129 4.37345 14.1948C3.78579 13.8386 3.24044 13.3966 2.70048 12.9628C0.592835 11.2724 -0.0695153 9.02306 0.222063 6.38745C0.566737 3.27147 2.30181 1.37923 5.20859 0.573751C7.95636 -0.206038 10.8645 -0.188953 13.6032 0.623067C15.8737 1.28973 17.4603 2.72352 17.8535 5.18928C18.0218 6.24316 17.9867 7.33083 18.0452 8.43311H11.5504C11.5504 7.95001 11.5504 7.46964 11.5504 6.98836C11.5504 4.91987 9.62096 3.78745 7.81929 4.79202C6.66558 5.43676 6.3524 7.37284 7.31443 8.42398C7.86364 9.00456 8.49113 9.50327 9.17819 9.90526C10.5821 10.75 12.058 11.4742 13.4592 12.3208C14.4264 12.9007 15.3512 13.5504 16.2265 14.2651C17.6664 15.4468 18.5546 16.9765 18.5618 18.9016C18.5663 20.0824 18.5447 21.276 18.362 22.4413C18.0326 24.5281 16.8042 25.9847 14.945 26.9062C13.6185 27.5637 12.1966 27.8532 10.7351 27.9473C8.57523 28.087 6.44599 27.9856 4.39955 27.1884C1.64846 26.1171 0.204964 24.0569 0.0231775 21.0916C-0.0281187 20.2167 0.0177781 19.3354 0.0177781 18.4276Z" fill="white"/>
<path d="M22.7854 26.9268C24.3723 18.2437 25.9586 9.55819 27.5442 0.870217H28.0563C31.5363 0.870217 35.0155 0.876609 38.4955 0.861084C38.8861 0.861084 39.022 0.967021 39.0949 1.36702C40.626 9.84921 42.1666 18.329 43.7169 26.8063C43.719 26.8496 43.7172 26.893 43.7115 26.936H36.8234C35.6733 19.0212 34.5232 11.1022 33.3731 3.17889L33.2912 3.17341C33.1796 3.90401 33.0653 4.6346 32.9564 5.36519C31.9029 12.4489 30.8509 19.5326 29.8004 26.6163C29.7689 26.8319 29.741 26.9816 29.4629 26.9816C27.3031 26.9716 25.1432 26.9752 22.9834 26.9734C22.9161 26.964 22.8499 26.9484 22.7854 26.9268Z" fill="white"/>
<path d="M90.6079 18.3945C90.6079 19.1845 90.6079 19.9416 90.6079 20.6996C90.6079 22.2155 91.3945 23.074 92.8964 23.1754C93.2252 23.1987 93.5555 23.184 93.881 23.1315C95.1238 22.9215 95.8068 21.9023 95.7438 20.4229C95.7105 19.6475 95.4253 18.9745 94.8484 18.4987C94.0757 17.8512 93.2613 17.2569 92.4105 16.7197C91.0813 15.8977 89.6747 15.1982 88.3608 14.3571C87.464 13.7777 86.6182 13.1208 85.8329 12.3936C84.3093 10.9973 83.8143 9.16624 83.9322 7.14432C83.967 6.49122 84.0628 5.84295 84.2184 5.20824C84.7773 2.99729 86.2378 1.60003 88.3158 0.910527C91.363 -0.100431 94.4605 -0.123262 97.5158 0.865779C100.109 1.70505 101.431 3.58907 101.531 6.35254C101.557 7.06212 101.536 7.77263 101.536 8.50505H95.1985C95.1985 8.0329 95.1985 7.58176 95.1985 7.13062C95.1895 5.14523 93.6911 4.08039 91.8318 4.73701C90.4756 5.21738 89.9555 7.22012 90.9382 8.41007C91.3802 8.92604 91.8999 9.36774 92.478 9.71875C93.5345 10.3818 94.6378 10.9617 95.733 11.5681C97.3655 12.4749 98.989 13.3945 100.323 14.7434C101.409 15.8393 102.077 17.1534 102.114 18.7105C102.142 19.9215 102.131 21.1544 101.939 22.3452C101.569 24.6411 100.176 26.1982 98.0585 26.9872C94.7008 28.2384 91.2865 28.2466 87.9387 26.9726C85.3001 25.9681 83.9628 23.8987 83.7918 21.0639C83.7396 20.1872 83.7837 19.3041 83.7837 18.3945H90.6079Z" fill="white"/>
</g>
<defs>
<clipPath id="clip0_314_1404">
<rect width="180" height="28" fill="white"/>
</clipPath>
</defs>
</svg>
