<svg width="77" height="76" viewBox="0 0 77 76" fill="none" xmlns="http://www.w3.org/2000/svg">
<path d="M35.5223 44.4034V28.3608H40.2953V37.3035V37.8643L40.8524 37.8002C42.7897 37.5775 44.7058 36.3037 46.2759 34.5369C47.7738 32.8514 49.0029 30.6678 49.6771 28.3608H54.4696C53.3736 33.7273 49.6267 37.6895 46.9538 39.3404L46.1912 39.8114L46.9927 40.2128C49.6669 41.5521 53.943 45.0149 55.7575 51.2424H50.4253C48.9497 46.7318 45.476 43.2029 40.8482 42.711L40.2953 42.6522V43.2082V51.2424H40.1015C34.1162 51.2424 29.4611 49.0571 26.2546 45.0816C23.1099 41.1826 21.3186 35.5107 21.1031 28.3608H26.2334C26.5615 39.0798 31.0671 43.8645 34.8933 44.8865L35.5223 45.0545V44.4034Z" fill="#DFFA70" stroke="black"/>
<path d="M5.1669 4.4794C7.70173 1.94456 11.1356 0.514223 14.7204 0.5H62.2796C65.8644 0.514223 69.2983 1.94456 71.8331 4.4794C74.3682 7.01446 75.7985 10.4487 75.8125 14.0338V61.5912C75.7985 65.1763 74.3682 68.6105 71.8331 71.1456C69.298 73.6807 65.8638 75.111 62.2787 75.125H14.7213C11.1362 75.111 7.70196 73.6807 5.1669 71.1456C2.63206 68.6108 1.20172 65.1769 1.1875 61.5921V14.0329C1.20172 10.4481 2.63206 7.01423 5.1669 4.4794ZM62.2806 6.375H14.7194C10.4557 6.375 7.0625 9.76823 7.0625 14.0319V61.5916C7.05637 62.5987 7.25016 63.5971 7.63266 64.5288C8.01536 65.4611 8.57935 66.308 9.29192 67.0206C10.0045 67.7331 10.8514 68.2971 11.7837 68.6798C12.7155 69.0624 13.714 69.2562 14.7213 69.25C14.7217 69.25 14.7221 69.25 14.7225 69.25L62.2806 69.25C66.5443 69.25 69.9375 65.8568 69.9375 61.5931V14.0319C69.9375 9.76823 66.5443 6.375 62.2806 6.375Z" fill="#DFFA70" stroke="black"/>
</svg>
