<svg width="76" height="76" viewBox="0 0 76 76" fill="none" xmlns="http://www.w3.org/2000/svg">
<path d="M22.1416 64.7165L22.1395 64.7153L21.1799 64.1421L9.54134 67.1803L8.70331 67.3991L8.93295 66.564L12.0369 55.2757L11.4138 54.2775C11.4136 54.2772 11.4134 54.2769 11.4131 54.2765C8.2285 49.2354 6.54407 43.3989 6.55533 37.4434C6.55533 37.4433 6.55533 37.4431 6.55533 37.443L7.05533 37.4439L22.1416 64.7165ZM22.1416 64.7165C27.0412 67.6102 32.6333 69.1363 38.3299 69.1344L22.1416 64.7165ZM55.2709 45.7612L55.27 45.7608C54.8051 45.5282 53.4187 44.8464 52.0399 44.1825C50.6497 43.5131 49.3087 42.8824 48.8991 42.7303C48.4524 42.5716 48.1866 42.5014 47.9764 42.525C47.8228 42.5422 47.6277 42.6192 47.3743 43.0035L47.3708 43.0089L47.3707 43.0088C46.7194 43.9692 44.8988 46.1091 44.3563 46.7205C44.0352 47.0925 43.6555 47.3578 43.1673 47.4154C42.7002 47.4706 42.2201 47.3238 41.7174 47.0761L41.7128 47.0739C41.5685 47.0009 41.364 46.9125 41.1069 46.8013C39.7925 46.2328 37.1029 45.0694 34.0472 42.3454C34.0471 42.3453 34.047 42.3453 34.0469 42.3452L34.3797 41.972C31.5784 39.4905 29.7029 36.4183 29.1427 35.4871L55.2709 45.7612ZM55.2709 45.7612C55.4769 45.8638 55.658 45.9504 55.8204 46.0281C56.0529 46.1393 56.2471 46.2323 56.4217 46.3275C56.7161 46.488 56.8242 46.5908 56.8665 46.663L56.8665 46.663L56.8701 46.669C56.869 46.6671 56.8694 46.6685 56.871 46.6738C56.8781 46.6968 56.9077 46.7931 56.9246 47.0036C56.9431 47.2349 56.9422 47.5458 56.9101 47.9208C56.8461 48.6694 56.6605 49.6431 56.286 50.6984M55.2709 45.7612L57.2979 46.4102M56.7566 50.8673C57.5353 48.6742 57.5353 46.8025 57.2979 46.4102M56.7566 50.8673L56.2865 50.697C56.2864 50.6975 56.2862 50.6979 56.286 50.6984M56.7566 50.8673C55.9637 53.0557 52.2081 55.0503 50.4039 55.3245L56.7566 50.8673ZM57.2979 46.4102C57.1115 46.0921 56.6692 45.8802 56.0172 45.5679M57.2979 46.4102L56.0172 45.5679M56.286 50.6984C55.9475 51.6309 54.9308 52.6006 53.6905 53.3923C52.4629 54.1758 51.1407 54.7062 50.3309 54.8298M56.286 50.6984L50.3309 54.8298M50.3309 54.8298C48.745 55.0558 46.7934 55.156 44.6397 54.4699L44.639 54.4697C43.2727 54.0367 41.5349 53.4708 39.3267 52.512L39.3253 52.5114C30.6028 48.7569 24.7165 40.3196 23.6206 38.7487C23.5486 38.6455 23.4973 38.572 23.4672 38.5313L23.4643 38.5275L23.4568 38.5175C23.2126 38.1942 22.2824 36.9629 21.4096 35.2549C20.524 33.5218 19.7195 31.34 19.7195 29.1441C19.7195 25.0065 21.7344 22.869 22.6932 21.8518C22.7562 21.785 22.8147 21.723 22.8677 21.6656L22.8678 21.6656L22.8748 21.6576C23.1444 21.3529 23.4745 21.1068 23.8444 20.9348C24.2125 20.7637 24.6122 20.6698 25.0184 20.6589C25.6519 20.6589 26.2645 20.6592 26.7857 20.6911L26.7857 20.6912L26.7958 20.6916C26.8779 20.6949 26.9615 20.6937 27.0312 20.6926L27.0493 20.6924C27.1277 20.6912 27.1941 20.6907 27.2594 20.6939C27.3851 20.7001 27.4903 20.7197 27.5929 20.7677C27.7909 20.8604 28.1086 21.1227 28.4669 21.99L28.4669 21.99L28.469 21.9949C28.8028 22.7788 29.3296 24.054 29.8459 25.3039C29.9408 25.5335 30.0353 25.7622 30.1281 25.9869C30.717 27.4115 31.2557 28.7096 31.3878 28.9712C31.5854 29.3692 31.6686 29.732 31.457 30.1671C31.4103 30.2615 31.3678 30.349 31.3278 30.4312C31.0943 30.9117 30.95 31.2087 30.5907 31.6164L30.5891 31.6182C30.3925 31.8436 30.2011 32.0753 30.017 32.2981C29.7257 32.6507 29.4528 32.9811 29.2067 33.229C29.2064 33.2293 29.2061 33.2297 29.2057 33.23L50.3309 54.8298ZM38.3486 5.8243C42.5245 5.81691 46.6607 6.63243 50.5187 8.2239C54.3766 9.81532 57.88 12.1512 60.8271 15.097C63.7843 18.0315 66.1287 21.5199 67.7251 25.3611C69.3217 29.2026 70.1384 33.3208 70.1283 37.4782C70.1086 54.9555 55.8436 69.1343 38.3301 69.1344L38.3486 5.8243ZM38.3486 5.8243C38.3487 5.8243 38.3488 5.8243 38.3489 5.8243V6.3243L38.348 5.8243C38.3482 5.8243 38.3484 5.8243 38.3486 5.8243ZM56.0172 45.5679C55.8554 45.4904 55.6806 45.4067 55.4937 45.3136L56.0172 45.5679ZM20.209 69.9325L1.08589 74.9228L6.17965 56.3358L6.23475 56.1347L6.13068 55.954C2.89332 50.334 1.1789 43.9872 1.17887 37.463C1.19774 17.0954 17.8699 0.500172 38.3299 0.500175L38.3317 0.500169C43.2138 0.482944 48.0505 1.43318 52.5599 3.29543C56.8134 5.052 60.6954 7.58686 64.0059 10.7661L64.595 11.3494C68.0555 14.7762 70.8005 18.8507 72.672 23.338C74.5436 27.8253 75.5047 32.6368 75.5 37.4954C75.4812 57.8823 58.8136 74.4775 38.3489 74.4775H38.33C38.33 74.4775 38.33 74.4775 38.3299 74.4775C32.1264 74.4759 26.0221 72.9285 20.5735 69.9767L20.4 69.8827L20.209 69.9325Z" fill="#DFFA70" stroke="black"/>
</svg>
