<svg width="76" height="76" viewBox="0 0 76 76" fill="none" xmlns="http://www.w3.org/2000/svg">
<path d="M4.4794 4.4794C7.01423 1.94456 10.4481 0.514223 14.0329 0.5H61.5921C65.1769 0.514223 68.6108 1.94456 71.1456 4.4794C73.6807 7.01446 75.111 10.4487 75.125 14.0338V61.5912C75.111 65.1763 73.6807 68.6105 71.1456 71.1456C68.6105 73.6807 65.1763 75.111 61.5912 75.125H14.0338C10.4487 75.111 7.01446 73.6807 4.4794 71.1456C1.94456 68.6108 0.514223 65.1769 0.5 61.5921V14.0329C0.514223 10.4481 1.94456 7.01423 4.4794 4.4794ZM61.5931 6.375H14.0319C9.76823 6.375 6.375 9.76823 6.375 14.0319V61.5916C6.36887 62.5987 6.56266 63.5971 6.94516 64.5288C7.32786 65.4611 7.89185 66.308 8.60442 67.0206C9.31698 67.7331 10.1639 68.2971 11.0962 68.6798C12.028 69.0624 13.0265 69.2562 14.0338 69.25C14.0342 69.25 14.0346 69.25 14.035 69.25L61.5931 69.25C65.8568 69.25 69.25 65.8568 69.25 61.5931V14.0319C69.25 9.76823 65.8568 6.375 61.5931 6.375Z" fill="#DFFA70" stroke="black"/>
<path d="M52.1251 21.4753L52.1251 21.4753L52.1318 21.4724C53.3484 20.9421 53.9206 21.1036 54.1723 21.3796C54.3185 21.5399 54.4409 21.8129 54.4847 22.2501C54.5283 22.6851 54.4897 23.2444 54.3517 23.9266L54.351 23.9303L48.8043 52.4441L48.8043 52.4441L48.8033 52.4497C48.5957 53.5859 48.2546 54.1678 47.8906 54.3834C47.5789 54.5681 47.0521 54.5846 46.1331 53.9997L37.6986 47.1428L37.3439 46.8544L37.025 47.1821L32.0958 52.2455C31.8862 52.4389 31.6569 52.5011 31.4699 52.4648C31.3061 52.433 31.0781 52.3064 30.8778 51.9243L31.4141 44.8218L49.1236 27.4137C49.1242 27.4131 49.1248 27.4125 49.1254 27.4119C49.3912 27.1555 49.6209 26.8533 49.653 26.5225C49.6715 26.332 49.6226 26.1325 49.4829 25.971C49.3527 25.8205 49.183 25.7487 49.0387 25.7161C48.7584 25.6529 48.4366 25.704 48.1406 25.8049C47.8359 25.9087 47.5074 26.0823 47.1882 26.3264L26.6283 40.1211L18.2978 37.247C18.0043 37.1019 17.8473 36.9482 17.7689 36.8216C17.6931 36.6991 17.6746 36.5777 17.6998 36.4495C17.755 36.1685 18.0469 35.7843 18.6381 35.4946L52.1251 21.4753Z" fill="#DFFA70" stroke="black"/>
</svg>
