<svg width="180" height="50" viewBox="0 0 180 50" fill="none" xmlns="http://www.w3.org/2000/svg">
<g clip-path="url(#clip0_314_1387)">
<path d="M49.4692 26.1714C49.3834 28.2963 49.3481 30.2395 49.2156 32.1755C49.0168 35.0745 48.442 37.9037 47.2364 40.557C45.5204 44.3327 42.6736 46.892 38.8163 48.3174C36.5011 49.1735 34.101 49.5781 31.6542 49.7766C27.4327 50.1181 23.2093 50.0174 18.9883 49.8247C16.6249 49.7173 14.2725 49.4331 11.9811 48.7977C6.38486 47.2456 2.14526 42.5802 1.08226 36.8429C0.598133 34.2251 0.275908 31.5794 0.117462 28.921C-0.0544887 26.1008 -0.0385634 23.272 0.16513 20.4539C0.362476 17.7654 0.65611 15.0822 1.29248 12.4597C2.59191 7.10528 5.8219 3.50748 10.9825 1.66635C12.7748 1.03 14.6305 0.689427 16.5038 0.436524C20.3759 -0.0866222 24.2642 -0.0668717 28.1558 0.12148C29.5354 0.188439 30.9177 0.233239 32.2939 0.344034C35.1492 0.574296 37.9059 1.20053 40.4852 2.51225C44.1313 4.3659 46.5762 7.27019 47.8914 11.1552C48.4844 12.9073 48.7971 14.7238 49.045 16.5505C49.4172 19.2924 49.4806 22.0508 49.4697 24.8125C49.4678 25.3279 49.4692 25.8414 49.4692 26.1714ZM9.48329 25.522V34.6265C9.48329 35.3852 9.48853 35.39 10.2164 35.3905H12.1231C12.6632 35.3905 13.2038 35.3958 13.7439 35.3905C14.1552 35.3847 14.2353 35.2942 14.2477 34.8741C14.2511 34.7614 14.2477 34.6492 14.2477 34.5369C14.2477 29.8964 14.2477 25.2558 14.2477 20.6152C14.2477 19.805 14.1819 19.765 15.0819 19.765C17.942 19.765 20.8021 19.7347 23.6622 19.7544C24.8882 19.7631 25.8106 20.3503 26.3769 21.4722C26.6295 21.9727 26.6991 22.5074 26.6991 23.0585V34.6198C26.6991 34.732 26.6948 34.8447 26.6991 34.957C26.7167 35.2976 26.7892 35.3688 27.1281 35.3905C27.1601 35.3905 27.1915 35.3905 27.2235 35.3905C28.4471 35.3905 29.6703 35.3934 30.8939 35.3905C31.3682 35.3905 31.4345 35.3149 31.4478 34.8274C31.4478 34.7792 31.4478 34.7311 31.4478 34.6829C31.4478 30.1868 31.4464 25.6908 31.4435 21.1948C31.4429 20.8261 31.4089 20.4583 31.342 20.096C30.892 17.6647 28.5648 15.616 25.9173 15.6261C20.6424 15.6478 15.367 15.6357 10.0915 15.6376C9.9962 15.6376 9.90086 15.6376 9.80553 15.6405C9.61485 15.6454 9.5138 15.7624 9.48996 15.9378C9.47737 16.0819 9.47435 16.2267 9.48091 16.3713C9.4825 19.4212 9.48329 22.4715 9.48329 25.522ZM35.2074 25.4739V34.6193C35.2074 34.7474 35.1993 34.8765 35.2107 35.0047C35.2346 35.2773 35.3266 35.3688 35.5964 35.39C35.7227 35.3997 35.8504 35.39 35.9777 35.39C37.137 35.39 38.2958 35.3934 39.4575 35.39C39.8655 35.39 39.9599 35.2874 39.9771 34.8838C39.9771 34.8356 39.9771 34.7874 39.9771 34.7392C39.9771 28.5774 39.9771 22.4159 39.9771 16.2547C39.9771 15.6983 39.9199 15.6391 39.3845 15.6381C38.1781 15.6357 36.9711 15.6381 35.7646 15.6381C35.7012 15.6381 35.6373 15.6381 35.574 15.6381C35.3451 15.642 35.2188 15.7547 35.2131 15.9907C35.2098 16.1189 35.2102 16.2475 35.2102 16.3761L35.2074 25.4739ZM17.9682 29.3088C17.9682 31.1374 17.9682 32.966 17.9682 34.7946C17.9682 35.3245 18.0311 35.3852 18.5402 35.3862C19.8263 35.3888 21.1121 35.3888 22.3975 35.3862C22.8995 35.3862 22.9634 35.3192 22.9638 34.7932C22.9657 31.1353 22.9657 27.4778 22.9638 23.8206C22.9638 23.2782 22.9238 23.2425 22.4009 23.2425C21.1478 23.2425 19.8943 23.2425 18.6403 23.2425C18.545 23.2425 18.4497 23.2368 18.3543 23.2449C18.075 23.269 17.9992 23.3413 17.973 23.6303C17.9606 23.7575 17.9687 23.8866 17.9687 24.0157L17.9682 29.3088Z" fill="#FF6301"/>
<path d="M169.666 33.8003C168.976 33.927 165.788 33.8841 165.357 33.7338C165.357 33.5633 165.357 33.3744 165.357 33.1851C165.353 29.9094 165.36 26.6337 165.338 23.3614C165.333 22.5627 165.24 21.7645 165.179 20.9668C165.117 20.1691 164.775 19.7428 163.829 19.5188C163.028 19.3294 162.204 19.2461 161.374 19.3742C161.03 19.4268 160.675 19.4075 160.335 19.4735C159.344 19.6662 159.016 20.0236 158.879 21.0246C158.854 21.2484 158.843 21.4737 158.847 21.699C158.844 23.0791 158.85 24.4598 158.844 25.8418C158.834 28.3101 158.821 30.7785 158.806 33.2468C158.806 33.4216 158.806 33.597 158.806 33.8374C157.359 33.8971 155.956 33.874 154.501 33.847C154.474 33.6485 154.428 33.466 154.428 33.2829C154.417 29.7519 154.417 26.2209 154.403 22.6899C154.4 22.082 154.365 21.4721 154.307 20.8666C154.243 20.1609 153.783 19.764 153.167 19.526C153.018 19.4682 152.861 19.4341 152.702 19.4248C151.596 19.3689 150.489 19.2384 149.387 19.5091C148.596 19.7018 148.097 20.1402 148.001 20.9577C147.906 21.7669 147.888 22.5888 147.885 23.4053C147.875 26.021 147.894 28.6372 147.885 31.2534C147.882 32.0984 147.825 32.9433 147.79 33.848C146.369 33.8841 144.965 33.8721 143.532 33.8422C143.505 33.518 143.461 33.2333 143.461 32.9486C143.457 29.1608 143.445 25.3726 143.47 21.5849C143.475 20.8208 143.579 20.0486 143.722 19.2967C143.869 18.5163 144.198 17.7745 144.812 17.2581C145.291 16.8631 145.817 16.5311 146.378 16.27C147.099 15.9295 147.89 15.7816 148.688 15.7498C149.86 15.7016 151.036 15.6294 152.207 15.6713C153.492 15.7194 154.771 15.8962 155.931 16.5297C156.455 16.8163 156.964 16.8081 157.47 16.5167C158.346 16.0118 159.31 15.8196 160.293 15.7556C161.384 15.6848 162.481 15.6409 163.574 15.6684C164.813 15.6992 166.035 15.89 167.152 16.5128C168.036 17.0056 168.778 17.6261 169.191 18.5886C169.437 19.163 169.58 19.7774 169.612 20.4027C169.662 21.3633 169.703 22.3253 169.707 23.2868C169.718 26.5625 169.712 29.8381 169.707 33.1105C169.711 33.3412 169.681 33.5768 169.666 33.8003Z" fill="#8A8A8B"/>
<path d="M111.012 22.3128C111.071 21.5825 110.997 20.9196 110.665 20.316C110.421 19.8714 109.983 19.6464 109.521 19.5063C108.276 19.1271 107.003 19.0578 105.707 19.1652C103.908 19.315 102.183 19.7972 100.464 20.3074C99.6883 20.5371 99.4576 20.5126 99.5029 19.5771C99.5443 18.71 99.5577 17.8463 99.5648 16.9801C99.5672 16.6974 99.6783 16.5427 99.9319 16.4358C100.727 16.0986 101.56 15.8948 102.404 15.7527C104.208 15.4487 106.027 15.3013 107.857 15.3673C108.875 15.4049 109.893 15.5046 110.852 15.8596C113.017 16.6607 114.553 18.0886 115.215 20.3974C115.609 21.7732 115.698 23.1702 115.696 24.585C115.696 25.3876 115.696 26.1906 115.681 26.9936C115.654 28.2533 115.456 29.4764 114.94 30.6397C114.309 32.0594 113.242 32.9722 111.807 33.4674C110.849 33.8062 109.847 34.0036 108.833 34.0537C107.628 34.1019 106.42 34.1385 105.215 34.1134C103.73 34.0831 102.26 33.847 100.932 33.15C99.5834 32.4433 98.5424 31.4418 98.2149 29.8227C97.9641 28.5751 97.9289 27.3568 98.2058 26.1135C98.4556 24.982 99.1234 24.2083 100.058 23.6086C100.946 23.0382 101.926 22.7559 102.95 22.5657C104.541 22.268 106.158 22.1286 107.776 22.1495C108.71 22.162 109.644 22.2593 110.577 22.3161C110.704 22.3195 110.831 22.3128 111.012 22.3128ZM111.124 25.9907C110.484 25.9165 109.891 25.8096 109.295 25.7869C107.807 25.7296 106.316 25.6776 104.832 25.8712C104.234 25.9492 103.64 26.0263 103.087 26.2966C102.378 26.6439 102.007 27.3005 102.086 28.0905C102.096 28.2022 102.114 28.313 102.13 28.4238C102.25 29.2909 102.688 29.9234 103.529 30.1869C104.009 30.3367 104.515 30.4572 105.014 30.4788C106.026 30.5217 107.043 30.5044 108.056 30.4813C108.595 30.4663 109.128 30.3628 109.634 30.1749C110.291 29.934 110.734 29.5005 110.914 28.8073C111.146 27.8978 111.112 26.9686 111.124 25.9907Z" fill="#8A8A8B"/>
<path d="M129.388 34.2169C128.283 34.1273 127.168 34.1075 126.077 33.9317C124.69 33.7082 123.356 33.2809 122.311 32.2457C121.522 31.4629 120.89 30.5837 120.541 29.497C119.81 27.2199 119.76 24.9057 120.054 22.5602C120.197 21.421 120.476 20.3236 120.998 19.3033C121.523 18.2753 122.256 17.4477 123.252 16.8268C124.497 16.0503 125.86 15.7454 127.277 15.6673C128.478 15.6013 129.688 15.6158 130.891 15.6625C132.212 15.714 133.504 15.9491 134.704 16.5628C136.569 17.5152 137.698 19.0514 138.179 21.0727C138.686 23.2004 138.7 25.3542 138.393 27.5171C138.264 28.4276 138.073 29.3183 137.678 30.1454C136.769 32.0453 135.31 33.2597 133.261 33.7684C131.984 34.0834 130.699 34.1913 129.388 34.2169ZM134.26 24.9072C134.16 23.9746 134.206 23.0497 134.018 22.1248C133.78 20.9547 133.17 20.1015 132.068 19.7162C130.299 19.1034 128.486 19.0899 126.688 19.6015C126.271 19.72 125.84 19.9358 125.525 20.2277C124.947 20.7648 124.568 21.4853 124.451 22.2698C124.165 24.0719 124.144 25.8778 124.48 27.6717C124.738 29.0567 125.56 29.9686 126.941 30.2952C127.463 30.4252 127.995 30.5107 128.532 30.551C129.658 30.6223 130.788 30.6141 131.862 30.1988C133.018 29.7513 133.839 28.9705 134.01 27.6746C134.131 26.7584 134.179 25.8306 134.26 24.9072Z" fill="#8A8A8B"/>
<path d="M63.8524 15.9218C64.014 15.904 64.1508 15.8765 64.2881 15.8736C65.781 15.8673 67.2745 15.8683 68.7689 15.8596C69.0463 15.8596 69.2212 15.956 69.3924 16.1968C70.5364 17.7961 71.6995 19.3786 72.8559 20.9659C73.0723 21.2626 73.2849 21.5637 73.5233 21.9028C73.6787 21.7347 73.8398 21.5858 73.9713 21.4143C74.6992 20.4629 75.4286 19.5125 76.1407 18.5486C76.7092 17.7778 77.2636 16.997 77.8039 16.206C77.9779 15.9512 78.1885 15.8409 78.4793 15.8423C79.9408 15.8495 81.4023 15.8529 82.8648 15.8649C83.0469 15.8649 83.2285 15.9131 83.413 15.9362C83.4401 16.284 83.2967 16.5066 83.1241 16.721C81.9419 18.1921 80.7614 19.662 79.5824 21.1306C78.772 22.1422 77.9755 23.1577 77.1675 24.1654C77.0293 24.3384 76.8648 24.4896 76.6717 24.6953C76.8014 24.8972 76.9215 25.1173 77.0726 25.3134C78.312 26.9191 79.5533 28.5224 80.7965 30.1233C81.3356 30.8165 81.8847 31.502 82.4272 32.1947C82.7132 32.5589 83.0073 32.9173 83.2704 33.2969C83.3582 33.4241 83.3605 33.6124 83.4134 33.8268C83.2056 33.8432 83.0683 33.8634 82.9315 33.8634C81.4538 33.8634 79.9761 33.8567 78.4984 33.8716C78.1719 33.875 77.986 33.756 77.8053 33.4862C77.3629 32.8186 76.8767 32.1846 76.4096 31.5362C75.5979 30.408 74.7876 29.2794 73.9785 28.1502C73.9096 28.0671 73.8359 27.9881 73.7578 27.9137C73.5967 28.1064 73.4494 28.2687 73.3169 28.4436C72.148 29.9822 70.9808 31.5224 69.8152 33.0642C69.2079 33.8697 69.2122 33.8726 68.2135 33.8701C66.9904 33.8669 65.7669 33.8644 64.5431 33.8624C64.432 33.8624 64.3205 33.8663 64.2094 33.8595C63.8428 33.8374 63.7413 33.6669 63.9496 33.3687C64.2499 32.9351 64.5769 32.5213 64.903 32.1085C66.4283 30.1816 67.9572 28.2559 69.4896 26.3312C69.8647 25.8592 70.2432 25.3895 70.6265 24.9116C70.3152 24.5084 70.0383 24.1409 69.7518 23.7801C68.7984 22.5809 67.8427 21.3833 66.8845 20.1874C65.9984 19.0766 65.1094 17.9681 64.2275 16.8539C64.033 16.6053 63.8204 16.3558 63.8524 15.9218Z" fill="#8A8A8B"/>
<path d="M180 33.8191C179.827 33.8355 179.688 33.861 179.549 33.8605C178.389 33.8605 177.23 33.8572 176.069 33.8461C175.68 33.8427 175.644 33.7979 175.64 33.3909C175.621 28.7192 175.604 24.0476 175.59 19.3762C175.587 18.3978 175.621 17.4195 175.64 16.4411C175.643 16.2966 175.659 16.1559 175.668 16.023C176.235 15.8226 179.386 15.812 179.998 16.01L180 33.8191Z" fill="#8A8A8B"/>
<path d="M92.7087 33.8715H91.9937C90.945 33.8681 89.8987 33.8672 88.8509 33.8604C88.3571 33.8575 88.3266 33.8315 88.3266 33.3508C88.3266 27.6877 88.3266 22.0247 88.3266 16.362C88.3266 15.8962 88.3414 15.8706 88.809 15.8677C89.9201 15.8605 91.0308 15.8677 92.142 15.875C92.3136 15.875 92.4852 15.9188 92.7245 15.9516C92.7245 16.1361 92.7245 16.3066 92.7245 16.4766C92.7286 21.1291 92.7334 25.7814 92.7388 30.4335C92.7388 31.2167 92.7712 31.9995 92.7731 32.7828C92.7745 33.1171 92.7354 33.451 92.7087 33.8715Z" fill="#8A8A8B"/>
</g>
<defs>
<clipPath id="clip0_314_1387">
<rect width="180" height="50" fill="white"/>
</clipPath>
</defs>
</svg>
